<mxfile host="app.diagrams.net" modified="2023-11-30T09:22:57.215Z" agent="Mozilla/5.0 (Windows NT 10.0; Win64; x64) AppleWebKit/537.36 (KHTML, like Gecko) Chrome/119.0.0.0 Safari/537.36" etag="F8-HawF968NhqU0qDJF_" version="22.1.5" type="github">
  <diagram name="Page-1" id="U44AKlqPYRK6XK5reMsL">
    <mxGraphModel dx="1379" dy="621" grid="1" gridSize="10" guides="1" tooltips="1" connect="1" arrows="1" fold="1" page="1" pageScale="1" pageWidth="1169" pageHeight="827" math="0" shadow="0">
      <root>
        <mxCell id="0" />
        <mxCell id="1" parent="0" />
        <mxCell id="mxG8LXYOKO1QrB_IOBUx-1" value="Actors" style="swimlane;whiteSpace=wrap;html=1;startSize=23;" vertex="1" parent="1">
          <mxGeometry x="60" y="120" width="200" height="250" as="geometry" />
        </mxCell>
        <mxCell id="mxG8LXYOKO1QrB_IOBUx-2" value="Cast" style="swimlane;whiteSpace=wrap;html=1;" vertex="1" parent="1">
          <mxGeometry x="220" y="160" width="200" height="200" as="geometry" />
        </mxCell>
        <mxCell id="mxG8LXYOKO1QrB_IOBUx-3" value="Community" style="swimlane;whiteSpace=wrap;html=1;" vertex="1" parent="1">
          <mxGeometry x="170" y="360" width="200" height="200" as="geometry" />
        </mxCell>
        <mxCell id="mxG8LXYOKO1QrB_IOBUx-4" value="Genres" style="swimlane;whiteSpace=wrap;html=1;" vertex="1" parent="1">
          <mxGeometry x="210" y="627" width="200" height="200" as="geometry" />
        </mxCell>
        <mxCell id="mxG8LXYOKO1QrB_IOBUx-5" value="Movies" style="swimlane;whiteSpace=wrap;html=1;" vertex="1" parent="1">
          <mxGeometry x="385" y="460" width="200" height="200" as="geometry" />
        </mxCell>
        <mxCell id="mxG8LXYOKO1QrB_IOBUx-6" value="MyList" style="swimlane;whiteSpace=wrap;html=1;" vertex="1" parent="1">
          <mxGeometry x="540" y="360" width="200" height="200" as="geometry" />
        </mxCell>
        <mxCell id="mxG8LXYOKO1QrB_IOBUx-7" value="Users" style="swimlane;whiteSpace=wrap;html=1;" vertex="1" parent="1">
          <mxGeometry x="640" y="560" width="200" height="200" as="geometry" />
        </mxCell>
        <mxCell id="mxG8LXYOKO1QrB_IOBUx-9" value="Tokens" style="swimlane;whiteSpace=wrap;html=1;" vertex="1" parent="1">
          <mxGeometry x="460" y="130" width="200" height="200" as="geometry" />
        </mxCell>
      </root>
    </mxGraphModel>
  </diagram>
</mxfile>
